<mxfile host="app.diagrams.net" modified="2023-10-26T06:52:03.592Z" agent="Mozilla/5.0 (Windows NT 10.0; Win64; x64) AppleWebKit/537.36 (KHTML, like Gecko) Chrome/118.0.0.0 Safari/537.36" etag="SD77nJUfxVX5tLU67Wzp" version="22.0.8" type="device">
  <diagram name="第 1 页" id="aIjHNnc27p3M83ChRHAW">
    <mxGraphModel dx="1434" dy="750" grid="1" gridSize="10" guides="1" tooltips="1" connect="1" arrows="1" fold="1" page="1" pageScale="1" pageWidth="827" pageHeight="1169" math="0" shadow="0">
      <root>
        <mxCell id="0" />
        <mxCell id="1" parent="0" />
        <mxCell id="QeH-K6aPF6zUdPSQXJK3-5" value="" style="rounded=0;whiteSpace=wrap;html=1;" vertex="1" parent="1">
          <mxGeometry x="100" y="40" width="670" height="610" as="geometry" />
        </mxCell>
        <mxCell id="QeH-K6aPF6zUdPSQXJK3-4" value="" style="group;strokeWidth=1;shadow=0;" vertex="1" connectable="0" parent="1">
          <mxGeometry x="203" y="100" width="490" height="310" as="geometry" />
        </mxCell>
        <mxCell id="QeH-K6aPF6zUdPSQXJK3-1" value="" style="rounded=0;whiteSpace=wrap;html=1;strokeColor=#289f77;strokeWidth=4;" vertex="1" parent="QeH-K6aPF6zUdPSQXJK3-4">
          <mxGeometry x="-21.67" width="511.67" height="310" as="geometry" />
        </mxCell>
        <mxCell id="QeH-K6aPF6zUdPSQXJK3-2" value="" style="rounded=0;whiteSpace=wrap;html=1;fillColor=#dae8fc;strokeColor=#6c8ebf;" vertex="1" parent="QeH-K6aPF6zUdPSQXJK3-4">
          <mxGeometry x="468.33" y="5" width="18.85" height="300" as="geometry" />
        </mxCell>
        <mxCell id="QeH-K6aPF6zUdPSQXJK3-3" value="" style="rounded=0;whiteSpace=wrap;html=1;" vertex="1" parent="QeH-K6aPF6zUdPSQXJK3-4">
          <mxGeometry x="470.21" y="80" width="16.02" height="190" as="geometry" />
        </mxCell>
        <mxCell id="QeH-K6aPF6zUdPSQXJK3-10" value="" style="shape=curlyBracket;whiteSpace=wrap;html=1;rounded=1;labelPosition=left;verticalLabelPosition=middle;align=right;verticalAlign=middle;" vertex="1" parent="QeH-K6aPF6zUdPSQXJK3-4">
          <mxGeometry x="437" y="80" width="20" height="190" as="geometry" />
        </mxCell>
        <mxCell id="QeH-K6aPF6zUdPSQXJK3-15" value="STH" style="text;html=1;strokeColor=none;fillColor=none;align=center;verticalAlign=middle;whiteSpace=wrap;rounded=0;" vertex="1" parent="QeH-K6aPF6zUdPSQXJK3-4">
          <mxGeometry x="377" y="95" width="60" height="30" as="geometry" />
        </mxCell>
        <mxCell id="QeH-K6aPF6zUdPSQXJK3-6" value="" style="shape=curlyBracket;whiteSpace=wrap;html=1;rounded=1;labelPosition=left;verticalLabelPosition=middle;align=right;verticalAlign=middle;" vertex="1" parent="1">
          <mxGeometry x="60" y="40" width="20" height="610" as="geometry" />
        </mxCell>
        <mxCell id="QeH-K6aPF6zUdPSQXJK3-7" value="" style="shape=curlyBracket;whiteSpace=wrap;html=1;rounded=1;labelPosition=left;verticalLabelPosition=middle;align=right;verticalAlign=middle;" vertex="1" parent="1">
          <mxGeometry x="149" y="100" width="20" height="310" as="geometry" />
        </mxCell>
        <mxCell id="QeH-K6aPF6zUdPSQXJK3-9" value="" style="shape=curlyBracket;whiteSpace=wrap;html=1;rounded=1;flipH=1;labelPosition=right;verticalLabelPosition=middle;align=left;verticalAlign=middle;" vertex="1" parent="1">
          <mxGeometry x="700" y="106" width="20" height="300" as="geometry" />
        </mxCell>
        <mxCell id="QeH-K6aPF6zUdPSQXJK3-12" value="VH" style="text;html=1;strokeColor=none;fillColor=none;align=center;verticalAlign=middle;whiteSpace=wrap;rounded=0;" vertex="1" parent="1">
          <mxGeometry x="109" y="240" width="60" height="30" as="geometry" />
        </mxCell>
        <mxCell id="QeH-K6aPF6zUdPSQXJK3-13" value="CH" style="text;html=1;strokeColor=none;fillColor=none;align=center;verticalAlign=middle;whiteSpace=wrap;rounded=0;" vertex="1" parent="1">
          <mxGeometry y="330" width="60" height="30" as="geometry" />
        </mxCell>
        <mxCell id="QeH-K6aPF6zUdPSQXJK3-16" value="SH" style="text;html=1;strokeColor=none;fillColor=none;align=center;verticalAlign=middle;whiteSpace=wrap;rounded=0;" vertex="1" parent="1">
          <mxGeometry x="711" y="242" width="60" height="30" as="geometry" />
        </mxCell>
        <mxCell id="QeH-K6aPF6zUdPSQXJK3-17" value="CH / VH = SH / STH" style="text;html=1;strokeColor=none;fillColor=none;align=center;verticalAlign=middle;whiteSpace=wrap;rounded=0;" vertex="1" parent="1">
          <mxGeometry x="220" y="710" width="250" height="30" as="geometry" />
        </mxCell>
      </root>
    </mxGraphModel>
  </diagram>
</mxfile>
